<svg xmlns="http://www.w3.org/2000/svg" viewBox="0 0 297.15 703.19"><title>spaceship</title><g id="spaceship"><g id="Fill"><path id="bg" d="M142.42,656.1v-4.71l1.83-.84L146.92,674h3l2.68-23.43,1.83,1.29v4.26l26.26-.42c6.13-2.58,5.3-14.36,5.3-14.36,10.07-.62,9.78-4.73,9.78-4.73V615.28c14.61-.57,101.08-16.4,101.08-16.4v-24.5c3.59-25.48-27-50.73-58.51-79.59a116.41,116.41,0,0,1-31.81-49.25c-.28-.9-.4-1.4-.4-1.4a84.06,84.06,0,0,1-3.12-11.6c-7-32.28-16-108.31-16-108.31-1.19-6.82-2.57-13.8-4.06-20.87-3-14.38-6.68-29.2-10.88-44.24q-2.72-9.76-5.75-19.61-1-3.25-2-6.51c-1-3.19-2-6.38-3.07-9.57a14.39,14.39,0,0,0-.64-1.52c-4.73-10.29-19.48-10.39-24.46-.33a14.55,14.55,0,0,0-.79,1.86q-1.52,4.58-3,9.15-1.09,3.43-2.15,6.86-3.05,9.89-5.78,19.69c-4,14.32-7.45,28.43-10.33,42.13-1.64,7.8-3.1,15.47-4.36,23L92.56,432.54l-1.85,11.6s-.41,1.36-1.32,3.73a138.75,138.75,0,0,1-30.89,46.92C34.39,518.78,1.13,546.3,0,574.37v24.5s86.47,15.83,101.08,16.4v21.32s-.29,4.11,9.78,4.73c0,0-.83,11.78,5.3,14.36" style="fill:#fff"/><path id="fill-blue" d="M142.75,252.47v-5.26h-.5v5.26Zm-1.61-5.26h-.5v5.26h.5Zm12.58,73v-6.85h-.5v6.85Zm2.5,0v-6.85h-.5v6.85Zm-20-30.65,23.74,0c.57-.5,11.78,12.15,12.22,13.7v-6q-23.94-31.45-47.89,0v6.08C124.65,302,135.74,289.15,136.21,289.56Zm-11.93,13.88v-.1C124.26,303.38,124.26,303.42,124.28,303.43Zm47.89-.15v.15S172.19,303.36,172.17,303.29ZM155,320.21v-6.85h-.5v6.85Zm-2.56-67.74v-5.26h-.5v5.26Zm-1.61-5.26h-.5v5.26h.5Zm-5.33,5.26h.5v-5.26h-.5Zm10.17-5.26h-.5v5.26h.5Zm-.76-15.12q-1.91-.12-3.8-.19v6.39l3.8.13ZM154,252.47v-5.26h-.5v5.26Zm-6.44,0v-5.26h-.5v5.26Zm2.35-20.6c-1,0-2-.07-3-.07v6.43l3,0Zm-4.15-.07c-1.27,0-2.54.05-3.8.09v6.45c1.26-.06,2.53-.07,3.8-.09Zm3.42,20.67v-5.26h-.5v5.26Zm-4.83,0v-5.26h-.5v5.26Zm-40.93,383.4h7.3V619.12l-7.3-.11Zm22.32,4.65c0-.85-3.18-1.53-7.1-1.53s-7.1.69-7.1,1.53,3.18,1.53,7.1,1.53S125.76,641.37,125.76,640.52Zm3.17,12.67c-7.45,0-13.49,1.3-13.49,2.91s6,2.91,13.49,2.91,13.49-1.3,13.49-2.91S136.38,653.19,128.93,653.19ZM0,587.58H48.22v20.19h3V587.58h51c.3-1.74.67-3.63,1.14-5.65H0Zm238.35-92.79a116.41,116.41,0,0,1-31.81-49.25c-.28-.9-.4-1.4-.4-1.4a84.08,84.08,0,0,1-3.12-11.6h-3.43a.7.7,0,0,0-.7.74c.1,1.87.44,7.14,1.39,13.75a83,83,0,0,0,4.09,16.37,84.61,84.61,0,0,0,17.83,29.11l52,55.61a61.27,61.27,0,0,1,10.85,15.78,27.4,27.4,0,0,1,2.43,7.14l.42,2.87H191.27c.64,1.95,1.19,3.84,1.66,5.65H296.86v-5.18C300.45,548.9,269.9,523.64,238.35,494.79ZM161.91,649.56c0-1.4-4.6-2.57-10.72-2.85.27-8.87.43-19.18.43-30.18,0-33.23-1.43-60.16-3.2-60.16s-3.2,26.93-3.2,60.16c0,11,.16,21.31.43,30.18-6.12.28-10.72,1.45-10.72,2.85s4.7,2.6,10.92,2.86c.58,14.73,1.52,24.28,2.57,24.28s2-9.54,2.57-24.28C157.22,652.16,161.91,651,161.91,649.56ZM178.2,639c-3.92,0-7.1.69-7.1,1.53s3.18,1.53,7.1,1.53,7.1-.69,7.1-1.53S182.12,639,178.2,639ZM152.47,320.21v-6.85H152v6.85Zm15.46,333c-7.45,0-13.49,1.3-13.49,2.91s6,2.91,13.49,2.91,13.49-1.3,13.49-2.91S175.38,653.19,167.93,653.19Zm-20.55-333v-6.85h-.5v6.85Zm-1.25,0v-6.85h-.5v6.85Zm3.84,0v-6.85h-.5v6.85Zm1.25,0v-6.85h-.5v6.85Zm-8.83,0v-6.85h-.5v6.85Zm-1.25,0v-6.85h-.5v6.85Zm3.75,0v-6.85h-.5v6.85Zm-1.25,0v-6.85h-.5v6.85ZM296.86,581.92H193.51c.47,2,.84,3.92,1.14,5.65h51.72v20.19h3V587.58h47.49ZM186.12,635.87h7.3V619l-7.3.11Zm-80.53-62c-.64,1.95-1.19,3.84-1.66,5.65H0V573.9H0C1.51,546,34.53,518.65,58.51,494.79a138.75,138.75,0,0,0,30.89-46.92c.91-2.37,1.32-3.73,1.32-3.73l1.85-11.6h3.33A1.12,1.12,0,0,1,97,433.72c-.13,2.18-.48,7.16-1.36,13.3a83,83,0,0,1-4,16,84.61,84.61,0,0,1-18,29.47L17,553.1A33.23,33.23,0,0,0,8.4,571L8,573.9ZM94.2,541.13c2.43-3.84,3-7,1.63-8.87-.87-1.19-2.44-1.75-4.52-1.75-4.55,0-11.5,2.71-18.69,7.59-12.68.52-21.87,4.3-21.87,9,0,2.32,2.28,4.5,6.43,6.15-2.1,3.54-2.54,6.46-1.24,8.24,2.73,3.72,12.2,1.45,22.55-5.39,12.58-.55,21.7-4.32,21.7-9C100.19,544.87,98.07,542.76,94.2,541.13Zm-1.1-6.31c.84,1.15.58,3.14-.75,5.62a52.91,52.91,0,0,0-15.18-2.38C84.61,533.77,91.31,532.37,93.11,534.82ZM56.66,548.23c0-2.3,3.93-4.47,10-5.58a50.15,50.15,0,0,0-8,8.36C57.68,550.35,56.66,549.39,56.66,548.23Zm2.53,11.43c-.83-1.13-.58-3.07.68-5.49a57.28,57.28,0,0,0,15.59,2h.11C67.94,560.67,61.05,562.19,59.2,559.66Zm19-5.15q-1.34.07-2.73.07A39.91,39.91,0,0,1,61,552.25a45.51,45.51,0,0,1,10.14-10.19c1.4-.11,2.84-.17,4.29-.17a40.07,40.07,0,0,1,14.35,2.3A51.25,51.25,0,0,1,80.37,553Q79.28,553.79,78.2,554.51Zm2.9-.23.14-.1a59.73,59.73,0,0,0,10.15-9.26c1.87,1,2.89,2.18,2.89,3.31C94.27,550.95,88.72,553.45,81.1,554.28Z" style="fill:#03233a"/><path id="white_dot" data-name="white dot" d="M108.22,622.63a1.17,1.17,0,1,1-1.17-1.17A1.17,1.17,0,0,1,108.22,622.63Zm-1.17,3.78a1.17,1.17,0,1,0,1.17,1.17A1.17,1.17,0,0,0,107.06,626.41Zm0,4.94a1.17,1.17,0,1,0,1.17,1.17A1.17,1.17,0,0,0,107.06,631.35Zm81.58-8.72a1.17,1.17,0,1,0,1.17-1.17A1.17,1.17,0,0,0,188.64,622.63Zm0,4.94a1.17,1.17,0,1,0,1.17-1.17A1.17,1.17,0,0,0,188.64,627.57Zm0,4.94a1.17,1.17,0,1,0,1.17-1.17A1.17,1.17,0,0,0,188.64,632.52Z" style="fill:#fff"/></g><path id="Stroke" d="M183,468.58V303.35M136.83,555.88h-23a90.64,90.64,0,0,0-12.78,42.59V619s38.37.71,38.41,0C140.72,595.64,136.83,555.88,136.83,555.88Zm-24.35,80h-11.4M117,642v5.06a1.7,1.7,0,0,0-1.51,1.86v5.93a2.49,2.49,0,0,0,1.31,2.18c5.28,2.89,18,2.44,23.31.61a3.5,3.5,0,0,0,2.36-3.31v-2.93m-17.72-10.44a1.76,1.76,0,0,0,1.12-1.63c.13-5.82-1.64-6.8-1.64-6.8-1.88-6.11-7.3-4.31-7.3-4.31-2.59.35-3.45,5.47-3.45,5.47-1,1.14-1.58,4.62-1.77,6.13a.93.93,0,0,0,.57,1A17,17,0,0,0,124.69,640.95Zm-10.54-21.67v3.35h12.72v-3.35m-2.71,13.24-.12-9.89h-6.36l-3.05,7.47m81.15,5.77h-2.36m-7.3,0h-1.68m1.68-16.75,7.3-.11m-7.3,16.86h7.3m-39,16v2.84a3,3,0,0,0,1.86,2.77c4.89,1.94,17.85,2.53,23.49-.26a3,3,0,0,0,1.63-2.71v-5.57a1.7,1.7,0,0,0-1.51-1.86V642m4.73-1.21a.93.93,0,0,0,.57-1c-.2-1.51-.75-5-1.77-6.13,0,0-.85-5.12-3.45-5.47,0,0-5.42-1.8-7.3,4.31,0,0-1.77,1-1.64,6.8a1.76,1.76,0,0,0,1.12,1.63A17,17,0,0,0,184.64,640.79ZM170,619.28v3.35H182.7v-3.35m-.48,10.82-3.05-7.47h-6.36l-.12,9.89m-48.62-8.43H136.9a1.61,1.61,0,0,0,1.61-1.61v-3.35M147.16,559c-6.38,32.58-6.21,71.15-.24,115a.43.43,0,0,0,.87-.06V559A.32.32,0,0,0,147.16,559Zm1.9.07v114.9a.43.43,0,0,0,.87.06c6-43.88,6.14-82.45-.24-115A.32.32,0,0,0,149.07,559Zm-6.65,58.88c-7.67,3.47-7.48,31.31-7.48,31.31,0,3.88,27,3.88,27,0,0,0,.19-27.83-7.48-31.31m3.81,1.23v3.35a1.61,1.61,0,0,0,1.61,1.61h12.83M148.43,323.68V556.37m-32.28,99.3c-6.13-2.58-5.3-14.36-5.3-14.36-10.07-.62-9.78-4.73-9.78-4.73V615.28C86.47,614.71,0,598.88,0,598.88V574.61m0,0v-.24c1.13-28.07,34.39-55.59,58.51-79.59a138.75,138.75,0,0,0,30.89-46.92s2-7.84,3.17-15.33L109.8,324.23c1.26-7.5,2.72-15.17,4.36-23m0,0V555.88H183v-87.3M7.88,574.61l-.1.71m289.08,0v23.56s-86.47,15.83-101.08,16.4v21.32s.29,4.11-9.78,4.73c0,0,.83,11.78-5.3,14.36M114.16,467.35H97.07c-2.45.09-4.19-1.55-5.39-4.31a84.61,84.61,0,0,1-18,29.47L17,553.1A33.23,33.23,0,0,0,8.4,571l-.52,3.58M183,468.58h15.85c2.55-.13,4.32-2.08,5.52-5.19a84.61,84.61,0,0,0,17.83,29.11l56.7,60.59A33.23,33.23,0,0,1,287.53,571l.62,4.29M183,303.35c1.49,7.07,2.87,14.05,4.06,20.87,0,0,9,76,16,108.31,1,4.8,3.53,13,3.53,13a116.41,116.41,0,0,0,31.81,49.25c31.55,28.86,62.09,54.11,58.51,79.59v.94m-8.71,0h8.71m-289-.71H0m116.15,81.07c-6.13-2.58-5.3-14.36-5.3-14.36-10.07-.62-9.78-4.73-9.78-4.73V615.28C86.47,614.71,0,598.88,0,598.88M117,642v5.06a1.7,1.7,0,0,0-1.51,1.86v5.93a2.49,2.49,0,0,0,1.31,2.18c5.28,2.89,18,2.44,23.31.61a3.5,3.5,0,0,0,2.36-3.31v-2.93m-17.72-10.44a1.76,1.76,0,0,0,1.12-1.63c.13-5.82-1.64-6.8-1.64-6.8-1.88-6.11-7.3-4.31-7.3-4.31-2.59.35-3.45,5.47-3.45,5.47-1,1.14-1.58,4.62-1.77,6.13a.93.93,0,0,0,.57,1A17,17,0,0,0,124.69,640.95Zm-10.54-21.67v3.35h12.72v-3.35m-2.71,13.24-.12-9.89h-6.36l-3.05,7.47M193.42,619l2.36,0v-20.5A90.64,90.64,0,0,0,183,555.88H160s-3.89,39.76-2.65,63.09c0,.47,17.38.31,28.74.15m9.66,16.75h-2.36m-7.3,0,0-16.75,7.3-.11m-7.3,16.86h7.3m-39,16v2.84a3,3,0,0,0,1.86,2.77c4.89,1.94,17.85,2.53,23.49-.26a3,3,0,0,0,1.63-2.71v-5.57a1.7,1.7,0,0,0-1.51-1.86V642m4.73-1.21a.93.93,0,0,0,.57-1c-.2-1.51-.75-5-1.77-6.13,0,0-.85-5.12-3.45-5.47,0,0-5.42-1.8-7.3,4.31,0,0-1.77,1-1.64,6.8a1.76,1.76,0,0,0,1.12,1.63A17,17,0,0,0,184.64,640.79ZM170,619.28v3.35H182.7v-3.35m-.48,10.82-3.05-7.47h-6.36l-.12,9.89m-48.62-8.43H136.9a1.61,1.61,0,0,0,1.61-1.61v-3.35M147.16,559c-6.38,32.58-6.21,71.15-.24,115a.43.43,0,0,0,.87-.06V559A.32.32,0,0,0,147.16,559Zm1.9.07v114.9a.43.43,0,0,0,.87.06c6-43.88,6.14-82.45-.24-115A.32.32,0,0,0,149.07,559Zm-6.65,58.88c-7.67,3.47-7.48,31.31-7.48,31.31,0,3.88,27,3.88,27,0,0,0,.19-27.83-7.48-31.31m3.81,1.23v3.35a1.61,1.61,0,0,0,1.61,1.61h12.83M148.43,323.68V556.37M166.38,239.5q-1-3.25-2-6.51l-3.53-10.57a7.6,7.6,0,0,0-.42-1c-4.87-9.59-18.76-9.71-23.91-.39a7.36,7.36,0,0,0-.51,1.18l-3.55,10.4q-1.09,3.43-2.15,6.86m43.39,25.35q-26.8-4.6-50.86,0m-8.15,61.71q32.2-6.66,68.35,0m-68.84-25.25c2.88-13.7,6.34-27.82,10.33-42.13q2.73-9.79,5.78-19.69a131.55,131.55,0,0,1,36.11.06q3,9.85,5.75,19.61c4.19,15,7.84,29.86,10.88,44.24" style="fill:none;stroke:#03233a;stroke-miterlimit:10;stroke-width:0.75px"/></g></svg>